<mxfile host="app.diagrams.net" agent="Mozilla/5.0 (Windows NT 10.0; Win64; x64) AppleWebKit/537.36 (KHTML, like Gecko) Chrome/131.0.0.0 Safari/537.36 Edg/131.0.0.0" version="26.0.5">
  <diagram name="Seite-1" id="7p8iVuH_cRRq6RV-iubz">
    <mxGraphModel dx="1188" dy="629" grid="1" gridSize="10" guides="1" tooltips="1" connect="1" arrows="1" fold="1" page="1" pageScale="1" pageWidth="827" pageHeight="1169" math="0" shadow="0">
      <root>
        <mxCell id="0" />
        <mxCell id="1" parent="0" />
        <mxCell id="COSx-kqy5qgdez1LMe4O-16" value="" style="group" vertex="1" connectable="0" parent="1">
          <mxGeometry x="80" y="250" width="140" height="280" as="geometry" />
        </mxCell>
        <mxCell id="COSx-kqy5qgdez1LMe4O-4" value="" style="rounded=0;whiteSpace=wrap;html=1;" vertex="1" parent="COSx-kqy5qgdez1LMe4O-16">
          <mxGeometry y="30" width="140" height="250" as="geometry" />
        </mxCell>
        <mxCell id="COSx-kqy5qgdez1LMe4O-7" value="SwiftLaTeX" style="shape=module;align=left;spacingLeft=20;align=center;verticalAlign=top;whiteSpace=wrap;html=1;" vertex="1" parent="COSx-kqy5qgdez1LMe4O-16">
          <mxGeometry x="20" y="49.99666666666666" width="100" height="40" as="geometry" />
        </mxCell>
        <mxCell id="COSx-kqy5qgdez1LMe4O-14" style="edgeStyle=orthogonalEdgeStyle;rounded=0;orthogonalLoop=1;jettySize=auto;html=1;" edge="1" parent="COSx-kqy5qgdez1LMe4O-16" source="COSx-kqy5qgdez1LMe4O-8" target="COSx-kqy5qgdez1LMe4O-7">
          <mxGeometry relative="1" as="geometry" />
        </mxCell>
        <mxCell id="COSx-kqy5qgdez1LMe4O-15" style="edgeStyle=orthogonalEdgeStyle;rounded=0;orthogonalLoop=1;jettySize=auto;html=1;" edge="1" parent="COSx-kqy5qgdez1LMe4O-16" source="COSx-kqy5qgdez1LMe4O-8" target="COSx-kqy5qgdez1LMe4O-9">
          <mxGeometry relative="1" as="geometry" />
        </mxCell>
        <mxCell id="COSx-kqy5qgdez1LMe4O-8" value="SPA" style="shape=module;align=left;spacingLeft=20;align=center;verticalAlign=top;whiteSpace=wrap;html=1;" vertex="1" parent="COSx-kqy5qgdez1LMe4O-16">
          <mxGeometry x="20" y="125.53" width="100" height="40" as="geometry" />
        </mxCell>
        <mxCell id="COSx-kqy5qgdez1LMe4O-9" value="Audio" style="shape=module;align=left;spacingLeft=20;align=center;verticalAlign=top;whiteSpace=wrap;html=1;" vertex="1" parent="COSx-kqy5qgdez1LMe4O-16">
          <mxGeometry x="20" y="213.33333333333331" width="100" height="40" as="geometry" />
        </mxCell>
        <mxCell id="COSx-kqy5qgdez1LMe4O-2" value="" style="ellipse;shape=cloud;whiteSpace=wrap;html=1;" vertex="1" parent="1">
          <mxGeometry x="360.42" y="300" width="406.78" height="200.03" as="geometry" />
        </mxCell>
        <mxCell id="COSx-kqy5qgdez1LMe4O-3" value="Webclient" style="sketch=0;aspect=fixed;pointerEvents=1;shadow=0;dashed=0;html=1;strokeColor=none;labelPosition=center;verticalLabelPosition=bottom;verticalAlign=top;align=center;fillColor=light-dark(#000000, #bfd3ff);shape=mxgraph.azure.computer" vertex="1" parent="1">
          <mxGeometry x="125" y="207.97" width="50" height="45" as="geometry" />
        </mxCell>
        <mxCell id="COSx-kqy5qgdez1LMe4O-10" value="Initial Request" style="endArrow=classic;html=1;rounded=0;exitX=1.013;exitY=0.178;exitDx=0;exitDy=0;exitPerimeter=0;" edge="1" parent="1" source="COSx-kqy5qgdez1LMe4O-8" target="COSx-kqy5qgdez1LMe4O-1">
          <mxGeometry x="-0.5627" y="14" width="50" height="50" relative="1" as="geometry">
            <mxPoint x="200" y="335" as="sourcePoint" />
            <mxPoint x="260" y="460" as="targetPoint" />
            <mxPoint as="offset" />
          </mxGeometry>
        </mxCell>
        <mxCell id="COSx-kqy5qgdez1LMe4O-13" value="HTML/CSS/JS" style="endArrow=classic;html=1;rounded=0;exitX=-0.021;exitY=0.691;exitDx=0;exitDy=0;exitPerimeter=0;entryX=1.005;entryY=0.695;entryDx=0;entryDy=0;entryPerimeter=0;" edge="1" parent="1" source="COSx-kqy5qgdez1LMe4O-1" target="COSx-kqy5qgdez1LMe4O-8">
          <mxGeometry x="0.5559" y="16" width="50" height="50" relative="1" as="geometry">
            <mxPoint x="210" y="500" as="sourcePoint" />
            <mxPoint x="260" y="450" as="targetPoint" />
            <mxPoint as="offset" />
          </mxGeometry>
        </mxCell>
        <mxCell id="COSx-kqy5qgdez1LMe4O-1" value="https://decibel-threshold-event-displayer.github.io/" style="sketch=0;outlineConnect=0;fontColor=#232F3E;gradientColor=none;fillColor=#232F3D;strokeColor=none;dashed=0;verticalLabelPosition=bottom;verticalAlign=top;align=center;html=1;fontSize=12;fontStyle=0;aspect=fixed;pointerEvents=1;shape=mxgraph.aws4.traditional_server;" vertex="1" parent="1">
          <mxGeometry x="560" y="348.72" width="47.63" height="82.56" as="geometry" />
        </mxCell>
        <mxCell id="COSx-kqy5qgdez1LMe4O-19" value="onRender" style="endArrow=classic;html=1;rounded=0;exitX=1;exitY=0.25;exitDx=0;exitDy=0;anchorPointDirection=0;entryX=-0.005;entryY=0.101;entryDx=0;entryDy=0;entryPerimeter=0;" edge="1" parent="1" source="COSx-kqy5qgdez1LMe4O-7" target="COSx-kqy5qgdez1LMe4O-1">
          <mxGeometry x="-0.4535" y="13" width="50" height="50" relative="1" as="geometry">
            <mxPoint y="240" as="sourcePoint" />
            <mxPoint x="530" y="210" as="targetPoint" />
            <mxPoint as="offset" />
          </mxGeometry>
        </mxCell>
        <mxCell id="COSx-kqy5qgdez1LMe4O-20" value="LaTeX dependencies" style="endArrow=classic;html=1;rounded=0;entryX=0.972;entryY=0.572;entryDx=0;entryDy=0;entryPerimeter=0;exitX=0;exitY=0.213;exitDx=0;exitDy=0;exitPerimeter=0;" edge="1" parent="1" source="COSx-kqy5qgdez1LMe4O-1" target="COSx-kqy5qgdez1LMe4O-7">
          <mxGeometry x="0.3215" y="2" width="50" height="50" relative="1" as="geometry">
            <mxPoint x="541.1" y="323.4" as="sourcePoint" />
            <mxPoint x="250" y="323" as="targetPoint" />
            <mxPoint as="offset" />
          </mxGeometry>
        </mxCell>
      </root>
    </mxGraphModel>
  </diagram>
</mxfile>
